# xmcd CD database file
#
# Track frame offsets:
#	150
#	22759
#	45259
#	68233
#	85880
#	104236
#	123548
#	141744
#	160166
#	178814
#
# Disc length: 2658 seconds
#
# Revision: 0
# Processed by: cddbd v1.5.2PL0 Copyright (c) Steve Scherf et al.
# Submitted via: CDex 1.51
#
DISCID=8b0a600a
DTITLE=Pete Mastitti - Pete Mastitti
DYEAR=1999
DGENRE=Jazz
TTITLE0=Green Trim
TTITLE1=Count The Stars
TTITLE2=Have I Lost My Mind
TTITLE3=Can't Stop The Rain
TTITLE4=Slip Away
TTITLE5=Without You
TTITLE6=You Said We'd Always Be Friends
TTITLE7=Run With Me
TTITLE8=Everything I See
TTITLE9=You Get Me Off
EXTD=YEAR: 1999
EXTT0=
EXTT1=
EXTT2=
EXTT3=
EXTT4=
EXTT5=
EXTT6=
EXTT7=
EXTT8=
EXTT9=
PLAYORDER=
